<svg xmlns="http://www.w3.org/2000/svg" width="223" height="141.91" viewBox="0 0 223 141.91"><path d="M36.47,72.45a11,11,0,0,1-.4,2.07A9,9,0,0,1,34.18,78a10,10,0,0,1-7.13,3.79,10.41,10.41,0,0,1-7.81-2.48,10.68,10.68,0,0,1-4-7.26,9.84,9.84,0,0,1,2.27-7.76,12,12,0,0,1,7.35-4L20.89,57a14.71,14.71,0,0,0-6.36,4.43,14.43,14.43,0,0,0-3.27,12.23,14.74,14.74,0,0,0,5.24,9A14.25,14.25,0,0,0,27.3,86a14.39,14.39,0,0,0,10-5.37,15.57,15.57,0,0,0,3.33-7.35l-4-3.32A21.76,21.76,0,0,1,36.47,72.45Z" fill="#231f20"/><path d="M55.72,40.27a14.32,14.32,0,0,0-11.37.43,14.58,14.58,0,0,0-7.82,8.39,14,14,0,0,0,.33,11.29,14.05,14.05,0,0,0,9.08,8.07,15.14,15.14,0,0,0,18.56-9.1A14.08,14.08,0,0,0,64.12,48,14.33,14.33,0,0,0,55.72,40.27Zm4.83,17.78a10.63,10.63,0,0,1-19.71.55,10.38,10.38,0,0,1-.39-8.2,10.69,10.69,0,0,1,13.7-6.32,11.11,11.11,0,0,1,6.4,14Z" fill="#231f20"/><polygon points="73.93 60.42 78.2 59.71 74.9 39.93 99.09 58 94.09 28.02 89.83 28.73 93.1 48.37 68.9 30.24 73.93 60.42" fill="#231f20"/><polygon points="108.05 31.75 108.26 56.34 112.58 56.3 112.37 31.71 118.94 31.66 118.9 27.59 101.43 27.74 101.46 31.81 108.05 31.75" fill="#231f20"/><rect x="111.43" y="40.42" width="28.65" height="4.32" transform="translate(72.9 164.37) rotate(-85.24)" fill="#231f20"/><polygon points="155.06 53.37 139.64 27.36 132.73 57.16 136.94 58.14 141.47 38.6 156.9 64.56 163.77 34.95 159.55 33.98 155.06 53.37" fill="#231f20"/><path d="M194.5,49.64l-3.8-2.07-8.24,15.16q-1.78,3.3-3.64,4.17a6.45,6.45,0,0,1-8.91-4.85q-.25-2.07,1.52-5.32l8.24-15.16-3.8-2.06-8.81,16.2a10.41,10.41,0,0,0,4.19,14.49,10.44,10.44,0,0,0,8.4.85,10.32,10.32,0,0,0,6-5.21Z" fill="#231f20"/><polygon points="213.25 74.74 216.43 72.2 206.56 59.85 184.17 77.72 194.03 90.08 197.21 87.54 190.04 78.56 197.53 72.59 204.49 81.31 207.66 78.77 200.71 70.06 206.09 65.76 213.25 74.74" fill="#231f20"/><path d="M148.46,95.74a1.63,1.63,0,0,0-.33-.49L126,73.09a1.5,1.5,0,0,0-2.12,2.12l19.6,19.6H67a1.5,1.5,0,0,0,0,3h76.42l-19.6,19.61a1.5,1.5,0,0,0,1.06,2.56,1.51,1.51,0,0,0,1.06-.44l22.16-22.17a1.51,1.51,0,0,0,.33-.49v0a1.63,1.63,0,0,0,.1-.55,1.68,1.68,0,0,0-.1-.55Z" fill="#231f20"/></svg>