<svg xmlns="http://www.w3.org/2000/svg" viewBox="0 0 560.87 364.9"><path d="M254.64,130.09a69,69,0,0,0-24.39-18.48,72.39,72.39,0,0,0-30.14-6.36,68.51,68.51,0,0,0-26.66,5.45,78.4,78.4,0,0,0-23.18,14.85,75.34,75.34,0,0,0-16.36,21.81A58.83,58.83,0,0,0,127.7,174a64,64,0,0,0,5.6,26.67,69.9,69.9,0,0,0,15.15,21.66,71.62,71.62,0,0,0,22,14.54,66.32,66.32,0,0,0,26.36,5.3,54.13,54.13,0,0,0,15.6-2,38.74,38.74,0,0,0,10.91-5,31.55,31.55,0,0,0,7.11-6.51q2.73-3.48,4.55-6.21h.61q0,22.13-1.82,41.05t-7,32.72q-5.16,13.8-13.94,21.67t-23,7.87c-1.82,0-3.84,0-6.06-.15a15.94,15.94,0,0,1-6.21-1.51,11.38,11.38,0,0,1-4.7-4.09c-1.21-1.82-1.82-4.44-1.82-7.88a21.25,21.25,0,0,1,.61-4.54q.6-2.73,1.21-5.76c.4-2,.81-4,1.21-5.91a24.15,24.15,0,0,0,.61-4.69,12.55,12.55,0,0,0-1.52-6.67,10.92,10.92,0,0,0-3.94-3.79,13.32,13.32,0,0,0-5.15-1.66,47.14,47.14,0,0,0-5.15-.31q-9.39,0-14.69,4.55t-5.3,14.24a30,30,0,0,0,2,9.84,26.37,26.37,0,0,0,7.42,10.61q5.46,5,15.3,8.33t25.3,3.33q23.32,0,39.84-10.3A83.72,83.72,0,0,0,256,291.58q10.74-17.56,15.75-41a240.69,240.69,0,0,0,5-50.15q0-22.73-5.91-40.44T254.64,130.09ZM235.4,200.84a71.73,71.73,0,0,1-1.06,9.54q-2.72,13-12.27,20.3T198.9,238q-15.47,0-22.88-13.48t-7.42-45q0-23,2.72-36.81t7.28-21.21q4.54-7.42,10.45-9.7a34,34,0,0,1,12.27-2.27,43.45,43.45,0,0,1,11.51,1.67q6.06,1.66,11.21,9.09t8.49,22.87q3.33,15.45,3.33,43.33Q235.86,194,235.4,200.84Z" fill="#231f20"/><path d="M444.31,178.42a167.65,167.65,0,0,0-6.52-25.6,78.39,78.39,0,0,0-12.57-23.48,65.15,65.15,0,0,0-20.91-17.27q-12.72-6.82-31.2-6.82-16.67,0-28.63,6.36A65.17,65.17,0,0,0,324.33,128a84.78,84.78,0,0,0-13.18,22.57,149.74,149.74,0,0,0-7.58,25.15,202,202,0,0,0-3.48,23.63q-.91,11.07-.91,18.33,0,5.76.3,16.36a168.09,168.09,0,0,0,8.94,48.33A81,81,0,0,0,321,305.82a62.77,62.77,0,0,0,20.91,17.27q12.72,6.66,31.21,6.66,16.65,0,28.63-6.21a62.64,62.64,0,0,0,20.15-16.36,88.45,88.45,0,0,0,13.18-22.57,144.89,144.89,0,0,0,7.57-25A199.27,199.27,0,0,0,446.12,236q.92-11.05.91-18.33,0-5.75-.3-16.21A168.91,168.91,0,0,0,444.31,178.42Zm-38.94,88.31q-.75,20.61-4.09,33.63t-9.84,19.24q-6.53,6.22-18.33,6.21t-18.33-6.21q-6.52-6.19-9.85-19.24t-4.09-33.63q-.76-20.6-.76-49.08,0-28.77.76-49.23t4.09-33.48q3.33-13,9.85-19.24t18.33-6.21q11.81,0,18.33,5.61t9.84,18.48q3.33,12.87,4.09,33.48t.76,50.59Q406.13,246.14,405.37,266.73Z" fill="#231f20"/><polygon points="46.7 140.33 43.89 139.02 38.27 151.12 41.08 152.43 43.2 147.87 60.22 155.77 61.61 152.78 44.59 144.88 46.7 140.33" fill="#231f20"/><polygon points="54.28 123.39 61.24 128.36 55.76 136.03 48.8 131.06 46.88 133.74 64.67 146.45 66.59 143.77 58.28 137.83 63.76 130.16 72.07 136.1 73.99 133.41 56.2 120.7 54.28 123.39" fill="#231f20"/><polygon points="77.15 125.66 71.95 120.52 77.94 114.47 75.73 112.29 69.75 118.34 66.01 114.65 72.17 108.42 69.97 106.24 61.49 114.81 77.03 130.19 85.52 121.61 83.31 119.43 77.15 125.66" fill="#231f20"/><path d="M98.49,98.38a9.5,9.5,0,0,0-4.7.15l-2.29.55c-1.66.4-2.81.17-3.43-.69a2.42,2.42,0,0,1-.4-2.1,3.36,3.36,0,0,1,1.4-2,3.26,3.26,0,0,1,1.74-.7,4.64,4.64,0,0,1,2.16.54l1.24-2.85a6.51,6.51,0,0,0-6.94.47,6.81,6.81,0,0,0-2.83,4.09,5.3,5.3,0,0,0,.89,4.45c1.42,2,3.72,2.6,6.89,1.87l2.22-.52a9.12,9.12,0,0,1,1.58-.23,4.67,4.67,0,0,1,1.28.11,3,3,0,0,1,1,.47,3.74,3.74,0,0,1,.83.85,3.59,3.59,0,0,1,.7,2.72,3.78,3.78,0,0,1-4.71,2.93,5.59,5.59,0,0,1-2.2-1.7l-2.28,2.55a7.77,7.77,0,0,0,4.62,2.52,6.72,6.72,0,0,0,4.8-1.39A6.89,6.89,0,0,0,103,106a6.65,6.65,0,0,0-1.29-5.21A5.93,5.93,0,0,0,98.49,98.38Z" fill="#231f20"/><polygon points="109.96 77.89 106.7 79.84 106.87 89.91 98.1 84.97 94.84 86.91 107.34 93.92 112.17 102.03 115.01 100.34 110.17 92.23 109.96 77.89" fill="#231f20"/><path d="M133.85,87.35a11.31,11.31,0,0,0-7-14.68,9.71,9.71,0,0,0-4.3-.31,16.53,16.53,0,0,0-5,1.7l-4.13,2L123,95.72l4.07-2a16.65,16.65,0,0,0,4.35-2.81A10.27,10.27,0,0,0,133.85,87.35Zm-3-1.14a7.68,7.68,0,0,1-1.7,2.58,12.57,12.57,0,0,1-3.12,2l-1.33.65-6.88-14.07,1.34-.65c2.52-1.24,4.73-1.57,6.61-1a7.56,7.56,0,0,1,4.72,4.18A7.47,7.47,0,0,1,130.8,86.21Z" fill="#231f20"/><polygon points="141.63 86.81 144.71 85.61 139.16 71.34 160.05 81.08 151.65 59.46 148.58 60.65 154.08 74.81 133.18 65.04 141.63 86.81" fill="#231f20"/><polygon points="175.75 74.73 174.82 71.77 166.46 74.4 164.27 67.43 172.39 64.88 171.46 61.92 163.34 64.47 161.76 59.46 170.12 56.83 169.19 53.87 157.68 57.49 164.25 78.35 175.75 74.73" fill="#231f20"/><polygon points="183.94 72.5 187.14 71.67 184.75 62.53 188.54 48.7 184.87 49.66 182.23 59.38 175.19 52.19 171.51 53.15 181.56 63.36 183.94 72.5" fill="#231f20"/><polygon points="208.16 66.91 206.33 56.87 215.61 55.18 217.44 65.22 220.68 64.63 216.76 43.12 213.52 43.71 215.05 52.13 205.77 53.82 204.24 45.4 201 45.99 204.91 67.5 208.16 66.91" fill="#231f20"/><path d="M228.36,58.16,237.64,57l3,5,3.59-.46L230.87,39.77l-7.78,24.42,3.53-.45Zm3.39-11.06,4.16,7-6.58.85Z" fill="#231f20"/><path d="M250,61.06l-.73-8.92.59,0,7,8.41,4-.33-7.51-8.73A5.93,5.93,0,0,0,256.61,49a6.29,6.29,0,0,0,1-4.09,6,6,0,0,0-2.51-4.6q-2.06-1.45-6.37-1.11l-3.86.32,1.8,21.79Zm-.36-18.8c3-.25,4.63.74,4.82,3q.28,3.57-4.38,4l-1,.08-.57-6.91Z" fill="#231f20"/><path d="M268.88,59.8a13.84,13.84,0,0,0,3.7-.57A6,6,0,0,0,275,57.62a6.18,6.18,0,0,0,.46-7.79,5.25,5.25,0,0,0-2.84-2,5.14,5.14,0,0,0,1.63-4,6.47,6.47,0,0,0-.66-2.53,6,6,0,0,0-1.55-2,5.23,5.23,0,0,0-2.27-1.05,14.43,14.43,0,0,0-3.51-.19l-3.28.14L263.89,60Zm3.29-8.91a3.1,3.1,0,0,1,1.16,2.33,3,3,0,0,1-1,2.45,5,5,0,0,1-3.24,1l-2,.09-.28-6.61,1.67-.07A5.5,5.5,0,0,1,272.17,50.89ZM267.54,41a3.64,3.64,0,0,1,2.58.69,3,3,0,0,1,1,2.31,3.17,3.17,0,0,1-.76,2.43,3.76,3.76,0,0,1-2.66.93l-1,0-.27-6.35Z" fill="#231f20"/><path d="M299.15,40.5a10.91,10.91,0,0,0-8-3.41A11.14,11.14,0,0,0,283,40.33a11.29,11.29,0,0,0,.19,16.43A11.54,11.54,0,0,0,299,56.53a10.75,10.75,0,0,0,3.44-8A10.91,10.91,0,0,0,299.15,40.5ZM296.7,54.34a8.11,8.11,0,0,1-13.78-6,7.88,7.88,0,0,1,2.4-5.78,8.15,8.15,0,0,1,11.51.1,8.5,8.5,0,0,1-.13,11.72Z" fill="#231f20"/><path d="M314.29,60.48a8,8,0,0,0,6.08-2.15,7.85,7.85,0,0,0,2.48-5.56l.8-14.05-3.29-.19-.75,13.15a7.13,7.13,0,0,1-1.16,4.06,4.92,4.92,0,0,1-7.73-.44,7.27,7.27,0,0,1-.68-4.17L310.79,38l-3.29-.19-.81,14.06a7.93,7.93,0,0,0,7.6,8.63Z" fill="#231f20"/><path d="M331.58,52.42l.59.06L337.48,62l4,.41-5.79-10a5.94,5.94,0,0,0,3.72-1.77,6.25,6.25,0,0,0,1.73-3.83,6,6,0,0,0-1.63-5q-1.75-1.81-6.06-2.26l-3.85-.39L327.39,61l3.28.33Zm1-9.76,1.17.12q4.53.47,4.19,3.8-.36,3.57-5,3.09l-1.05-.11Z" fill="#231f20"/><path d="M362,65.11a6,6,0,0,0,2.66-1.1,6.13,6.13,0,0,0,2.06-7.52,5.2,5.2,0,0,0-2.36-2.5,5.16,5.16,0,0,0,2.42-3.63,6.25,6.25,0,0,0-.12-2.61,5.88,5.88,0,0,0-1.1-2.29,5.2,5.2,0,0,0-2-1.5,14.64,14.64,0,0,0-3.4-.91l-3.24-.54-3.59,21.57,4.93.82A14.81,14.81,0,0,0,362,65.11ZM359.64,46l1.15.19a3.72,3.72,0,0,1,2.38,1.21,3,3,0,0,1,.48,2.46,3.18,3.18,0,0,1-1.24,2.22,3.79,3.79,0,0,1-2.8.36l-1-.17Zm-1.5,9,1.65.27a5.5,5.5,0,0,1,3.49,1.55,3.07,3.07,0,0,1,.65,2.52,3,3,0,0,1-1.48,2.19,5.07,5.07,0,0,1-3.39.32l-2-.33Z" fill="#231f20"/><path d="M375.05,58.89l.58.13,4.25,10,3.95.84-4.68-10.52A6,6,0,0,0,383,58a6.28,6.28,0,0,0,2.13-3.63,6,6,0,0,0-1.09-5.13q-1.53-2-5.78-2.89l-3.78-.8L370,67l3.23.69Zm2-9.6,1.15.25q4.47.95,3.76,4.23-.74,3.51-5.33,2.53l-1-.22Z" fill="#231f20"/><rect x="380.14" y="58.86" width="21.86" height="3.3" transform="translate(237.65 425.29) rotate(-75.98)" fill="#231f20"/><path d="M399.26,74a17.39,17.39,0,0,0,5.1.87A10.64,10.64,0,0,0,414.23,67a10.46,10.46,0,0,0-1-8.74,9.84,9.84,0,0,0-2.95-3.13A16.6,16.6,0,0,0,405.5,53l-4.4-1.3-6.18,21Zm4.13-18.35,1.42.42c2.7.8,4.56,2,5.56,3.72a7.59,7.59,0,0,1,.66,6.28,7.48,7.48,0,0,1-7,5.62,12.49,12.49,0,0,1-3.68-.6L399,70.66Z" fill="#231f20"/><path d="M424,82.55a9.88,9.88,0,0,0,8.45-.5,9.37,9.37,0,0,0,2.95-2.4,15.28,15.28,0,0,0,2.07-3.89l.25-.67-8.46-3.17-1.09,2.91,5.11,1.91a5.82,5.82,0,0,1-3.42,3,6.54,6.54,0,0,1-4.67,0A7.85,7.85,0,0,1,421,75.78a7.73,7.73,0,0,1-.34-6.55,8,8,0,0,1,4.26-4.7,7.86,7.86,0,0,1,6.29-.2A8,8,0,0,1,436.07,70l3-1.28a13.93,13.93,0,0,0-2.72-4.65,11.22,11.22,0,0,0-4.12-2.66,11.39,11.39,0,0,0-14.43,15.3A10.65,10.65,0,0,0,424,82.55Z" fill="#231f20"/><polygon points="437.15 87.36 448.11 92.4 449.41 89.58 441.44 85.92 444.5 79.28 452.23 82.83 453.52 80.02 445.79 76.46 447.98 71.69 455.95 75.35 457.24 72.53 446.28 67.49 437.15 87.36" fill="#231f20"/><polygon points="478.43 87.81 480 85.13 468.51 78.36 466.94 81.03 471.27 83.59 461.74 99.75 464.58 101.43 474.11 85.26 478.43 87.81" fill="#231f20"/><path d="M496.93,96.93,494.25,95l-7.68,10.7a7.07,7.07,0,0,1-3.15,2.81,4.92,4.92,0,0,1-6.29-4.51,7.22,7.22,0,0,1,1.65-3.89l7.68-10.7-2.68-1.92-8.21,11.43a7.94,7.94,0,0,0,1.8,11.37,7.93,7.93,0,0,0,11.35-1.93Z" fill="#231f20"/><path d="M503.51,116.62a6.24,6.24,0,0,0,3.68-2,6,6,0,0,0,1.67-5q-.32-2.49-3.5-5.43l-2.85-2.62-14.79,16.1,2.43,2.23,6.05-6.58.44.4-1.46,10.81,3,2.73,1.32-11.44A5.92,5.92,0,0,0,503.51,116.62Zm-4.59-4.72-.77-.71,4.69-5.11.87.8c2.23,2.05,2.6,3.9,1.08,5.55S501.22,114,498.92,111.9Z" fill="#231f20"/><polygon points="529.05 130.68 527.02 128.08 515.03 137.41 518.4 114.58 499.97 128.93 502 131.53 514.08 122.13 510.75 144.93 529.05 130.68" fill="#231f20"/><path d="M536.62,143.93a6.86,6.86,0,0,0-3.55-3.49,5.28,5.28,0,0,0-4.53.1c-2.19,1.06-3.2,3.22-3,6.46l.13,2.28a9.07,9.07,0,0,1,0,1.6,4.41,4.41,0,0,1-.33,1.24,3,3,0,0,1-.64.92,3.88,3.88,0,0,1-1,.67,3.6,3.6,0,0,1-2.81.22,3.76,3.76,0,0,1-2.06-5.15,5.6,5.6,0,0,1,2.05-1.87l-2.12-2.69a7.72,7.72,0,0,0-3.28,4.12,6.78,6.78,0,0,0,.53,5,6.9,6.9,0,0,0,4,3.66,6.68,6.68,0,0,0,5.36-.37,5.94,5.94,0,0,0,2.89-2.76,9.32,9.32,0,0,0,.66-4.65l-.14-2.35c-.11-1.71.32-2.8,1.28-3.27a2.45,2.45,0,0,1,2.13,0,3.39,3.39,0,0,1,1.69,1.71,3.28,3.28,0,0,1,.39,1.85,4.54,4.54,0,0,1-.91,2l2.6,1.72A6.55,6.55,0,0,0,536.62,143.93Z" fill="#231f20"/></svg>